<svg xmlns="http://www.w3.org/2000/svg" viewBox="0 -6 400 280" fill="none" stroke="#16181a" stroke-width="4" stroke-linecap="round" stroke-linejoin="round">
  <!-- Browser window -->
  <rect x="20" y="78" width="132" height="124" rx="10" fill="#ffffff" />
  <path d="M20 104H152" />
  <circle cx="36" cy="91" r="2.5" fill="#16181a" stroke="none" />
  <circle cx="48" cy="91" r="2.5" fill="#16181a" stroke="none" />
  <circle cx="60" cy="91" r="2.5" fill="#16181a" stroke="none" />
  <path d="M38 126h60M38 144h88" />
  <rect x="38" y="160" width="44" height="26" rx="4" />
  <!-- Server stack -->
  <rect x="268" y="66" width="112" height="38" rx="8" fill="#ffffff" />
  <rect x="268" y="114" width="112" height="38" rx="8" fill="#ffffff" />
  <rect x="268" y="162" width="112" height="38" rx="8" fill="#ffffff" />
  <path d="M284 85h40M284 133h40M284 181h40" />
  <circle cx="358" cy="85" r="4" fill="#16181a" stroke="none" />
  <circle cx="358" cy="133" r="4" fill="#16181a" stroke="none" />
  <circle cx="358" cy="181" r="4" fill="#16181a" stroke="none" />
  <!-- Request goes right, answer comes back left -->
  <path d="M164 122H252" stroke-dasharray="2 11" stroke-width="5" />
  <path d="M240 112l12 10-12 10" />
  <path d="M256 158H168" stroke-dasharray="2 11" stroke-width="5" />
  <path d="M180 148l-12 10 12 10" />
  <rect x="196" y="112" width="20" height="20" rx="4" fill="#16181a" />
  <rect x="204" y="148" width="20" height="20" rx="4" fill="#ffffff" />
</svg>
